# xmcd
#
# Track frame offsets:
#	150
#	21441
#	44364
#	57767
#	73970
#	88871
#	107573
#	121926
#	140888
#	163402
#
# Disc length: 2418 seconds
#
# Revision: 1
# Processed by: cddbd v1.5.1PL2 Copyright (c) Steve Scherf et al.
# Submitted via: audiograbber 1.83.01
#
DISCID=9709700a
DTITLE=CARLOS A. JUSTE "LO BEETHOVEN" - NITS DE RUMBA I GARROTIN
DYEAR=1900
DGENRE=
TTITLE0=AMERICA I GAS BUTA
TTITLE1=RETRAT DEL MEU CARRER
TTITLE2=LOCO CHA, CHA, CHA
TTITLE3=CANCION PARA LOS GATOS
TTITLE4=L'HOME DE GRIS
TTITLE5=RUMBA and GARROTIN S.A.
TTITLE6=QUI VULGUI BALLAR LA RUMBA
TTITLE7=ROCK DE LA PERA LLIMONERA
TTITLE8=BARRIO AMIGO
TTITLE9=LO GARROTIN DEL MARQUES DE POTA
EXTD=
EXTT0=
EXTT1=
EXTT2=
EXTT3=
EXTT4=
EXTT5=
EXTT6=
EXTT7=
EXTT8=
EXTT9=
PLAYORDER=
